<svg width="60" height="60" viewBox="0 0 60 60" fill="none" xmlns="http://www.w3.org/2000/svg">
<rect width="60" height="60" rx="10" fill="#1D3573"/>
<mask id="mask0_114_3045" style="mask-type:alpha" maskUnits="userSpaceOnUse" x="0" y="0" width="60" height="60">
<rect width="60" height="60" rx="10" fill="#1D3573"/>
</mask>
<g mask="url(#mask0_114_3045)">
<path d="M-54 51.3929L-50.5 45.2109C-47 38.9626 -40 26.6981 -33 23.1017C-26 19.5715 -19 24.875 -12 29.3002C-5 33.6591 2 37.3053 9 39.0124C16 40.7857 23 40.7857 30 36.3606C37 32.0017 44 23.0519 51 17.7981C58 12.4448 65 10.7874 72 16.9197C79 23.0519 86 37.3053 93 40.7857C100 44.2662 107 37.3053 110.5 33.7088L114 30.1786V62H110.5C107 62 100 62 93 62C86 62 79 62 72 62C65 62 58 62 51 62C44 62 37 62 30 62C23 62 16 62 9 62C2 62 -5 62 -12 62C-19 62 -26 62 -33 62C-40 62 -47 62 -50.5 62H-54V51.3929Z" fill="url(#paint0_linear_114_3045)"/>
<path d="M130 48.7223L126.5 45.0636C123 41.3656 116 34.1071 109 31.9785C102 29.8892 95 33.0281 88 35.6471C81 38.2268 74 40.3848 67 41.3951C60 42.4446 53 42.4446 46 39.8256C39 37.2459 32 31.9491 25 28.8397C18 25.6714 11 24.6905 4 28.3198C-3 31.9491 -10 40.3848 -17 42.4446C-24 44.5045 -31 40.3848 -34.5 38.2562L-38 36.1669V55H-34.5C-31 55 -24 55 -17 55C-10 55 -3 55 4 55C11 55 18 55 25 55C32 55 39 55 46 55C53 55 60 55 67 55C74 55 81 55 88 55C95 55 102 55 109 55C116 55 123 55 126.5 55H130V48.7223Z" fill="url(#paint1_linear_114_3045)"/>
</g>
<path d="M44 43.8519C36.7278 44.6173 30.3111 45 24.75 45C22.1056 45 19.9861 44.2154 18.3917 42.6463C16.7972 41.0772 16 38.9914 16 36.3889V23.1852C16 20.3148 16.8167 18.0759 18.45 16.4685C20.1222 14.8228 22.4167 14 25.3333 14H44V21.75H28.5417C26.9861 21.75 26.2083 22.5154 26.2083 24.0463V35.2407C26.2083 35.8148 26.4028 36.2932 26.7917 36.6759C27.1806 37.0586 27.6667 37.25 28.25 37.25C31.75 37.25 37 36.963 44 36.3889V43.8519Z" fill="#FBFBFB"/>
<defs>
<linearGradient id="paint0_linear_114_3045" x1="30" y1="13" x2="30" y2="62" gradientUnits="userSpaceOnUse">
<stop stop-color="#4870D6"/>
<stop offset="1" stop-color="#2A3EA6" stop-opacity="0"/>
</linearGradient>
<linearGradient id="paint1_linear_114_3045" x1="46" y1="26" x2="46" y2="55" gradientUnits="userSpaceOnUse">
<stop stop-color="#4870D6" stop-opacity="0.46"/>
<stop offset="1" stop-color="#2A3EA6" stop-opacity="0"/>
</linearGradient>
</defs>
</svg>
