<svg width="108" height="16" viewBox="0 0 108 16" fill="none" xmlns="http://www.w3.org/2000/svg">
	<path d="M4.49574 15.5L0.390625 0.954545H3.22443L5.84517 11.6435H5.98011L8.77841 0.954545H11.3565L14.1619 11.6506H14.2898L16.9105 0.954545H19.7443L15.6392 15.5H13.0398L10.1278 5.29403H10.0142L7.09517 15.5H4.49574ZM33.7873 8.22727C33.7873 9.79451 33.4937 11.1368 32.9066 12.2543C32.3242 13.367 31.5288 14.2192 30.5202 14.8111C29.5165 15.4029 28.3777 15.6989 27.104 15.6989C25.8304 15.6989 24.6893 15.4029 23.6808 14.8111C22.677 14.2145 21.8815 13.3598 21.2944 12.2472C20.712 11.1297 20.4208 9.78977 20.4208 8.22727C20.4208 6.66004 20.712 5.32008 21.2944 4.20739C21.8815 3.08996 22.677 2.23532 23.6808 1.64347C24.6893 1.05161 25.8304 0.755681 27.104 0.755681C28.3777 0.755681 29.5165 1.05161 30.5202 1.64347C31.5288 2.23532 32.3242 3.08996 32.9066 4.20739C33.4937 5.32008 33.7873 6.66004 33.7873 8.22727ZM31.1381 8.22727C31.1381 7.12405 30.9653 6.19366 30.6197 5.43608C30.2788 4.67377 29.8053 4.09848 29.1992 3.71023C28.5932 3.31723 27.8948 3.12074 27.104 3.12074C26.3133 3.12074 25.6149 3.31723 25.0089 3.71023C24.4028 4.09848 23.927 4.67377 23.5813 5.43608C23.2404 6.19366 23.07 7.12405 23.07 8.22727C23.07 9.33049 23.2404 10.2633 23.5813 11.0256C23.927 11.7831 24.4028 12.3584 25.0089 12.7514C25.6149 13.1397 26.3133 13.3338 27.104 13.3338C27.8948 13.3338 28.5932 13.1397 29.1992 12.7514C29.8053 12.3584 30.2788 11.7831 30.6197 11.0256C30.9653 10.2633 31.1381 9.33049 31.1381 8.22727ZM36.2784 15.5V0.954545H41.733C42.8504 0.954545 43.7879 1.14867 44.5455 1.53693C45.3078 1.92519 45.883 2.4697 46.2713 3.17045C46.6643 3.86648 46.8608 4.6785 46.8608 5.60653C46.8608 6.5393 46.6619 7.34896 46.2642 8.03551C45.8712 8.71733 45.2912 9.24526 44.5241 9.61932C43.7571 9.98864 42.8149 10.1733 41.6974 10.1733H37.8125V7.9858H41.3423C41.9957 7.9858 42.5308 7.89583 42.9474 7.71591C43.3641 7.53125 43.6719 7.26373 43.8707 6.91335C44.0743 6.55824 44.1761 6.12263 44.1761 5.60653C44.1761 5.09044 44.0743 4.65009 43.8707 4.28551C43.6671 3.91619 43.357 3.63684 42.9403 3.44744C42.5237 3.25331 41.9863 3.15625 41.3281 3.15625H38.9134V15.5H36.2784ZM43.7926 8.90909L47.3935 15.5H44.4531L40.9162 8.90909H43.7926ZM49.2862 15.5V0.954545H51.9212V13.2912H58.3274V15.5H49.2862ZM65.5433 15.5H60.6143V0.954545H65.6428C67.0869 0.954545 68.3274 1.24574 69.3643 1.82812C70.406 2.40578 71.2062 3.23674 71.7649 4.32102C72.3236 5.4053 72.603 6.70265 72.603 8.21307C72.603 9.72822 72.3213 11.0303 71.7578 12.1193C71.1991 13.2083 70.3918 14.044 69.3359 14.6264C68.2848 15.2088 67.0206 15.5 65.5433 15.5ZM63.2493 13.2202H65.4155C66.4287 13.2202 67.2739 13.0355 67.951 12.6662C68.6281 12.2921 69.1371 11.7358 69.478 10.9972C69.8189 10.2538 69.9893 9.32576 69.9893 8.21307C69.9893 7.10038 69.8189 6.17708 69.478 5.44318C69.1371 4.70455 68.6328 4.15294 67.9652 3.78835C67.3023 3.41903 66.4785 3.23438 65.4936 3.23438H63.2493V13.2202ZM86.9318 0.954545V15.5H85.6392L77.0455 3.3196H76.9318V15.5H75.6037V0.954545H76.8892L85.5114 13.1491H85.625V0.954545H86.9318ZM92.1271 0.954545V15.5H90.799V0.954545H92.1271ZM107.386 5.5H106.051C105.952 5.00284 105.772 4.54356 105.511 4.12216C105.256 3.69602 104.934 3.32434 104.545 3.0071C104.157 2.68987 103.717 2.44366 103.224 2.26847C102.732 2.09328 102.199 2.00568 101.626 2.00568C100.708 2.00568 99.8698 2.24479 99.1122 2.72301C98.3594 3.20123 97.7557 3.90436 97.3011 4.83239C96.8513 5.75568 96.6264 6.88731 96.6264 8.22727C96.6264 9.5767 96.8513 10.7131 97.3011 11.6364C97.7557 12.5597 98.3594 13.2604 99.1122 13.7386C99.8698 14.2121 100.708 14.4489 101.626 14.4489C102.199 14.4489 102.732 14.3613 103.224 14.1861C103.717 14.0109 104.157 13.767 104.545 13.4545C104.934 13.1373 105.256 12.7656 105.511 12.3395C105.772 11.9134 105.952 11.4517 106.051 10.9545H107.386C107.268 11.6222 107.045 12.2448 106.719 12.8224C106.397 13.3954 105.985 13.8973 105.483 14.3281C104.986 14.759 104.413 15.0952 103.764 15.3366C103.116 15.5781 102.403 15.6989 101.626 15.6989C100.405 15.6989 99.3205 15.3935 98.3736 14.7827C97.4266 14.1671 96.6832 13.3007 96.1435 12.1832C95.6084 11.0658 95.3409 9.74716 95.3409 8.22727C95.3409 6.70739 95.6084 5.38873 96.1435 4.27131C96.6832 3.15388 97.4266 2.28977 98.3736 1.67898C99.3205 1.06345 100.405 0.755681 101.626 0.755681C102.403 0.755681 103.116 0.87642 103.764 1.1179C104.413 1.35464 104.986 1.69081 105.483 2.12642C105.985 2.55729 106.397 3.05919 106.719 3.6321C107.045 4.20502 107.268 4.82765 107.386 5.5Z" fill="#1C2430"/>
</svg>
